<svg width="278" height="23" viewBox="0 0 278 23" fill="none" xmlns="http://www.w3.org/2000/svg">
<path fill-rule="evenodd" clip-rule="evenodd" d="M121 10.5H0V12.5H121V10.5ZM156 12.5H278V10.5H156V12.5Z" fill="#EC5598"/>
<path fill-rule="evenodd" clip-rule="evenodd" d="M129.317 7.2315C127.079 10.3114 127.762 14.6222 130.842 16.8598C130.979 16.9592 131.118 17.0531 131.261 17.1417C131.44 17.2533 131.677 17.1982 131.788 17.0186C131.9 16.8389 131.845 16.6028 131.665 16.4912C131.538 16.4124 131.414 16.3287 131.292 16.2402C128.554 14.2512 127.948 10.4194 129.937 7.68169C131.231 5.89994 133.353 4.97179 135.505 5.18551C135.716 5.20641 135.903 5.05273 135.924 4.84227C135.945 4.63181 135.791 4.44425 135.581 4.42335C133.161 4.18302 130.773 5.22739 129.317 7.2315Z" fill="#EC5598"/>
<path fill-rule="evenodd" clip-rule="evenodd" d="M132.468 19.8367C134.706 22.9166 139.017 23.5994 142.097 21.3617C142.26 21.2429 142.418 21.1177 142.569 20.9863C142.729 20.8477 142.746 20.6058 142.607 20.4461C142.469 20.2864 142.227 20.2692 142.067 20.4079C141.932 20.5248 141.792 20.6363 141.647 20.7421C138.909 22.7311 135.077 22.1242 133.088 19.3865C132.073 17.989 131.706 16.2634 132.033 14.6014C132.074 14.3939 131.939 14.1926 131.731 14.1518C131.524 14.111 131.322 14.2462 131.282 14.4537C130.914 16.3225 131.327 18.2651 132.468 19.8367Z" fill="#EC5598"/>
<path fill-rule="evenodd" clip-rule="evenodd" d="M145.43 20.7349C149.051 19.5585 151.032 15.6697 149.856 12.0491C149.792 11.8512 149.719 11.6572 149.638 11.4674C149.555 11.2729 149.33 11.1824 149.135 11.2654C148.941 11.3484 148.851 11.5734 148.934 11.7679C149.006 11.9368 149.07 12.1095 149.128 12.2857C150.173 15.5041 148.412 18.9608 145.194 20.0065C142.321 20.94 139.208 19.6374 137.848 16.9765C137.751 16.7882 137.521 16.7136 137.332 16.8099C137.144 16.9062 137.069 17.1369 137.166 17.3252C138.697 20.3199 142.198 21.7851 145.43 20.7349Z" fill="#EC5598"/>
<path fill-rule="evenodd" clip-rule="evenodd" d="M150.29 8.68485C150.29 4.87788 147.204 1.79172 143.397 1.79172C143.187 1.79172 142.977 1.80116 142.769 1.81992C142.559 1.83894 142.403 2.02512 142.422 2.23576C142.441 2.4464 142.628 2.60174 142.838 2.58272C143.023 2.56603 143.21 2.55762 143.397 2.55762C146.781 2.55762 149.524 5.30088 149.524 8.68485C149.524 10.6998 148.545 12.5496 146.93 13.6913C146.758 13.8134 146.717 14.0524 146.839 14.2251C146.961 14.3978 147.2 14.4388 147.372 14.3167C149.188 13.0328 150.29 10.9511 150.29 8.68485Z" fill="#EC5598"/>
<path fill-rule="evenodd" clip-rule="evenodd" d="M132.374 5.00158C133.42 1.78322 136.876 0.0219469 140.095 1.06765C142.507 1.85139 144.162 4.02459 144.318 6.51356C144.332 6.72464 144.513 6.88504 144.725 6.87181C144.936 6.85858 145.096 6.67674 145.083 6.46566C144.907 3.66564 143.045 1.2209 140.331 0.339235C136.711 -0.837184 132.822 1.14425 131.646 4.7649C131.572 4.99258 131.51 5.22268 131.46 5.45455C131.415 5.66133 131.547 5.86497 131.754 5.9094C131.961 5.95383 132.164 5.82222 132.209 5.61544C132.253 5.40916 132.308 5.20435 132.374 5.00158Z" fill="#EC5598"/>
<path fill-rule="evenodd" clip-rule="evenodd" d="M137.27 6.7701C133.886 6.7701 131.143 9.51335 131.143 12.8973C131.143 16.2813 133.886 19.0246 137.27 19.0246C138.048 19.0246 138.807 18.8791 139.516 18.5994C139.713 18.5219 139.81 18.2995 139.732 18.1027C139.655 17.9059 139.432 17.8093 139.236 17.8869C138.615 18.1315 137.952 18.2587 137.27 18.2587C134.309 18.2587 131.908 15.8583 131.908 12.8973C131.908 9.93635 134.309 7.536 137.27 7.536C137.943 7.536 138.599 7.66006 139.213 7.89887C139.41 7.97555 139.632 7.87793 139.709 7.68082C139.785 7.48371 139.688 7.26176 139.491 7.18508C138.789 6.91197 138.039 6.7701 137.27 6.7701Z" fill="#EC5598"/>
<path fill-rule="evenodd" clip-rule="evenodd" d="M135.355 12.8971C135.355 16.2811 138.098 19.0244 141.482 19.0244C144.866 19.0244 147.609 16.2811 147.609 12.8971C147.609 11.1788 146.898 9.5735 145.668 8.42244C145.513 8.27793 145.271 8.28597 145.127 8.4404C144.982 8.59483 144.99 8.83716 145.145 8.98167C146.221 9.98939 146.844 11.393 146.844 12.8971C146.844 15.8581 144.443 18.2585 141.482 18.2585C138.521 18.2585 136.121 15.8581 136.121 12.8971C136.121 12.6314 136.14 12.3682 136.178 12.1088C136.209 11.8996 136.065 11.705 135.855 11.6742C135.646 11.6434 135.451 11.788 135.421 11.9973C135.377 12.2935 135.355 12.594 135.355 12.8971Z" fill="#EC5598"/>
<path fill-rule="evenodd" clip-rule="evenodd" d="M139.567 3.70648C142.528 3.70648 144.929 6.10683 144.929 9.06781C144.929 10.7995 144.102 12.3925 142.731 13.3965L141.93 13.8958C141.751 14.0078 141.696 14.2441 141.808 14.4235C141.92 14.6028 142.156 14.6574 142.336 14.5454L143.16 14.0303C144.75 12.8677 145.695 11.0463 145.695 9.06781C145.695 5.68383 142.951 2.94058 139.567 2.94058C136.504 2.94058 133.923 5.2015 133.5 8.20625C133.471 8.41569 133.617 8.60937 133.826 8.63886C134.036 8.66835 134.229 8.52248 134.259 8.31304C134.629 5.68502 136.887 3.70648 139.567 3.70648Z" fill="#EC5598"/>
<path fill-rule="evenodd" clip-rule="evenodd" d="M143.78 11.3655C143.78 9.03903 141.894 7.15305 139.567 7.15305C137.241 7.15305 135.355 9.03903 135.355 11.3655C135.355 13.692 137.241 15.578 139.567 15.578C141.894 15.578 143.78 13.692 143.78 11.3655ZM136.121 11.3655C136.121 9.46203 137.664 7.91895 139.567 7.91895C141.471 7.91895 143.014 9.46203 143.014 11.3655C143.014 13.269 141.471 14.8121 139.567 14.8121C137.664 14.8121 136.121 13.269 136.121 11.3655Z" fill="#EC5598"/>
<path fill-rule="evenodd" clip-rule="evenodd" d="M141.865 11.3655C141.865 10.0965 140.836 9.06781 139.567 9.06781C138.298 9.06781 137.27 10.0965 137.27 11.3655C137.27 12.6345 138.298 13.6632 139.567 13.6632C140.836 13.6632 141.865 12.6345 141.865 11.3655ZM138.036 11.3655C138.036 10.5195 138.721 9.83371 139.567 9.83371C140.413 9.83371 141.099 10.5195 141.099 11.3655C141.099 12.2115 140.413 12.8973 139.567 12.8973C138.721 12.8973 138.036 12.2115 138.036 11.3655Z" fill="#EC5598"/>
<path fill-rule="evenodd" clip-rule="evenodd" d="M136.758 12.2843C136.569 14.1525 137.592 15.578 139.568 15.578V14.8121C138.09 14.8121 137.373 13.8132 137.52 12.3615C137.661 10.9734 138.556 9.83371 139.568 9.83371V9.06781C138.096 9.06781 136.934 10.5475 136.758 12.2843Z" fill="#EC5598"/>
</svg>